# xmcd
# 
# Track frame offsets:
#     150
#     13419
#     27350
#     43244
#     62526
#     74962
#     84877
#     102430
#     117296
#     139281
#     154028
#     165780
#     180505
#     201077
#     214986
#     233942
# 
# Disc length: 3271
# 
# Revision: 0
# Processed by: cddbd v1.5.2PL0 Copyright (c) Steve Scherf et al.
# Submitted via: fre:ac v1.0.17
# 
DISCID=e30cc510
DTITLE=Bill Conlon - The Best Of...
DYEAR=0
DGENRE=Country
TTITLE0=One More Time
TTITLE1=Here's The Heart
TTITLE2=I Don't Have Far To Fall
TTITLE3=Cavan Girl
TTITLE4=Fourteen Carat Mind
TTITLE5=Kiss An Angel Good Morning
TTITLE6=What If I Say Goodbye
TTITLE7=Back In Love By Monday
TTITLE8=Red Is The Rose
TTITLE9=Carmen
TTITLE10=Candlelight and Wine
TTITLE11=A Little Undecided
TTITLE12=She Moves Through The Fair
TTITLE13=I'm A Little Bit Lonesome
TTITLE14=The Dance
TTITLE15=Lucille, Now's The Time
EXTD=
EXTT0=
EXTT1=
EXTT2=
EXTT3=
EXTT4=
EXTT5=
EXTT6=
EXTT7=
EXTT8=
EXTT9=
EXTT10=
EXTT11=
EXTT12=
EXTT13=
EXTT14=
EXTT15=
PLAYORDER=
